HIERARCHY
ROOT Hips
{
	OFFSET 0.00000 0.00000 0.00000
	CHANNELS 6 Xposition Yposition Zposition Zrotation Yrotation Xrotation 
	JOINT LHipJoint
	{
		OFFSET 0 0 0
		CHANNELS 3 Zrotation Yrotation Xrotation
		JOINT LeftUpLeg
		{
			OFFSET 1.28858 -1.83292 1.03970
			CHANNELS 3 Zrotation Yrotation Xrotation
			JOINT LeftLeg
			{
				OFFSET 2.47846 -6.80952 0.00000
				CHANNELS 3 Zrotation Yrotation Xrotation
				JOINT LeftFoot
				{
					OFFSET 2.75274 -7.56311 0.00000
					CHANNELS 3 Zrotation Yrotation Xrotation
					JOINT LeftToeBase
					{
						OFFSET 0.12848 -0.35301 1.68223
						CHANNELS 3 Zrotation Yrotation Xrotation
						End Site
						{
							OFFSET 0.00000 -0.00000 0.87311
						}
					}
				}
			}
		}
	}
	JOINT RHipJoint
	{
		OFFSET 0 0 0
		CHANNELS 3 Zrotation Yrotation Xrotation
		JOINT RightUpLeg
		{
			OFFSET -1.31183 -1.83292 1.03970
			CHANNELS 3 Zrotation Yrotation Xrotation
			JOINT RightLeg
			{
				OFFSET -2.44740 -6.72417 0.00000
				CHANNELS 3 Zrotation Yrotation Xrotation
				JOINT RightFoot
				{
					OFFSET -2.67343 -7.34519 0.00000
					CHANNELS 3 Zrotation Yrotation Xrotation
					JOINT RightToeBase
					{
						OFFSET -0.16914 -0.46471 1.77626
						CHANNELS 3 Zrotation Yrotation Xrotation
						End Site
						{
							OFFSET -0.00000 -0.00000 0.92777
						}
					}
				}
			}
		}
	}
	JOINT LowerBack
	{
		OFFSET 0 0 0
		CHANNELS 3 Zrotation Yrotation Xrotation
		JOINT Spine
		{
			OFFSET 0.01249 2.14252 0.03842
			CHANNELS 3 Zrotation Yrotation Xrotation
			JOINT Spine1
			{
				OFFSET -0.02957 2.14199 -0.03751
				CHANNELS 3 Zrotation Yrotation Xrotation
				JOINT Neck
				{
					OFFSET 0 0 0
					CHANNELS 3 Zrotation Yrotation Xrotation
					JOINT Neck1
					{
						OFFSET -0.01678 1.65709 -0.05476
						CHANNELS 3 Zrotation Yrotation Xrotation
						JOINT Head
						{
							OFFSET 0.07912 1.58331 -0.11843
							CHANNELS 3 Zrotation Yrotation Xrotation
							End Site
							{
								OFFSET 0.03298 1.73940 -0.04271
							}
						}
					}
				}
				JOINT LeftShoulder
				{
					OFFSET 0 0 0
					CHANNELS 3 Zrotation Yrotation Xrotation
					JOINT LeftArm
					{
						OFFSET 3.39556 1.16496 0.08673
						CHANNELS 3 Zrotation Yrotation Xrotation
						JOINT LeftForeArm
						{
							OFFSET 5.23910 -0.00000 -0.00000
							CHANNELS 3 Zrotation Yrotation Xrotation
							JOINT LeftHand
							{
								OFFSET 3.31467 -0.00000 0.00000
								CHANNELS 3 Zrotation Yrotation Xrotation
								JOINT LeftFingerBase
								{
									OFFSET 0 0 0
									CHANNELS 3 Zrotation Yrotation Xrotation
									JOINT LeftHandIndex1
									{
										OFFSET 0.96590 -0.00000 0.00000
										CHANNELS 3 Zrotation Yrotation Xrotation
										End Site
										{
											OFFSET 0.77873 -0.00000 0.00000
										}
									}
								}
								JOINT LThumb
								{
									OFFSET 0 0 0
									CHANNELS 3 Zrotation Yrotation Xrotation
									End Site
									{
										OFFSET 0.79062 -0.00000 0.79062
									}
								}
							}
						}
					}
				}
				JOINT RightShoulder
				{
					OFFSET 0 0 0
					CHANNELS 3 Zrotation Yrotation Xrotation
					JOINT RightArm
					{
						OFFSET -3.27193 1.31331 0.33940
						CHANNELS 3 Zrotation Yrotation Xrotation
						JOINT RightForeArm
						{
							OFFSET -5.30252 -0.00000 0.00000
							CHANNELS 3 Zrotation Yrotation Xrotation
							JOINT RightHand
							{
								OFFSET -3.67875 -0.00000 0.00000
								CHANNELS 3 Zrotation Yrotation Xrotation
								JOINT RightFingerBase
								{
									OFFSET 0 0 0
									CHANNELS 3 Zrotation Yrotation Xrotation
									JOINT RightHandIndex1
									{
										OFFSET -0.59481 -0.00000 0.00000
										CHANNELS 3 Zrotation Yrotation Xrotation
										End Site
										{
											OFFSET -0.47955 -0.00000 0.00000
										}
									}
								}
								JOINT RThumb
								{
									OFFSET 0 0 0
									CHANNELS 3 Zrotation Yrotation Xrotation
									End Site
									{
										OFFSET -0.48687 -0.00000 0.48687
									}
								}
							}
						}
					}
				}
			}
		}
	}
}
MOTION
Frames: 10
Frame Time: .0083333
10.0204 21.5926 -18.3182 0 0 0 0 0 0 -21 0 0 0 0 0 0 0 0 0 0 0 0 0 0 21 0 0 0 0 0 0 0 0 0 0 0 0 0 0 0 0 0 0 0 0 0 0 -16 0 0 21 0 0 11 0 0 0 -8 0 0 0 0 0 0 0 0 0 0 0 0 0 0 0 0 0 0 0 0 8 0 0 0 0 0 0 0 0 0 0 0 0 0 0 0 0 0
10.0204 21.5926 -18.3182 -0.0085 1.2845 5.9170 0.0000 0.0000 0.0000 -15.6309 -2.2127 4.4641 0.0006 0.1630 0.4479 0.1602 -4.7354 -7.3680 0.0711 1.7199 4.7323 0.0000 0.0000 0.0000 19.3465 7.3063 9.4265 -0.0231 0.9822 -2.6999 -0.8338 -7.7829 -21.7661 -1.2055 -6.9657 19.6139 1.1648 -1.2936 -10.5420 -2.1174 -1.7535 -1.7141 -3.1046 -0.8420 4.0185 -8.0066 -12.4946 2.3121 8.8547 -17.6054 9.3885 3.2459 -8.7576 3.9327 -0.0000 -0.0000 0.0000 -81.8929 6.0462 27.4420 13.2042 -21.5856 -2.5279 -0.0000 0.0000 -9.3681 6.5645 -14.2055 -1.6176 -7.1250 0.0000 -0.0000 -14.1996 15.9605 10.0653 -0.0000 -0.0000 0.0000 90.7544 -10.1047 11.7672 -11.5412 19.1130 -1.9494 0.0000 -0.0000 -2.4460 -8.6362 -35.4844 5.0385 7.1250 -0.0000 -0.0000 30.4537 -63.2102 -14.1219
10.0235 21.5834 -18.3167 0.0955 1.2860 5.9471 0.0000 0.0000 0.0000 -15.7506 -2.1555 4.3905 0.0010 0.2015 0.5537 0.1531 -4.9300 -7.2743 0.0844 1.8741 5.1580 0.0000 0.0000 0.0000 19.2400 7.3375 9.4553 -0.0248 1.0163 -2.7938 -0.8434 -7.8261 -21.8873 -1.1257 -6.7391 18.9448 -1.1472 -1.5817 -11.1214 -0.4885 -1.9346 -1.3429 -0.1559 -0.9716 4.8512 -8.9541 -12.4264 3.3826 8.2945 -17.3347 6.8869 3.3879 -8.7135 3.0152 -0.0000 -0.0000 0.0000 -84.5339 5.1926 27.1271 13.3100 -21.7397 -2.5670 -0.0000 0.0000 -9.4155 6.2367 -12.5935 -1.3649 -7.1250 0.0000 -0.0000 -14.5128 17.5451 9.7829 -0.0000 -0.0000 0.0000 88.0082 -9.8355 13.5148 -11.4258 18.9380 -1.9118 0.0000 0.0000 0.1432 -6.3849 -33.2916 3.5148 7.1250 -0.0000 -0.0000 30.4481 -60.7879 -12.3724
10.0280 21.5767 -18.3146 0.1841 1.2937 5.9825 0.0000 0.0000 0.0000 -15.8879 -2.1780 4.3822 0.0009 0.1968 0.5407 0.1532 -4.9707 -7.2860 0.0777 1.7979 4.9476 0.0000 0.0000 0.0000 19.0997 7.2215 9.4010 -0.0261 1.0428 -2.8665 -0.8511 -7.6839 -21.8467 -1.1184 -6.7181 18.8829 -1.6906 -1.6040 -11.1377 -0.1840 -1.9137 -1.3502 0.4698 -0.9741 4.8809 -8.8086 -12.3831 4.2431 7.6265 -17.1786 5.1704 3.6698 -8.6867 2.5359 0.0000 -0.0000 0.0000 -84.9751 5.1084 27.4090 13.5408 -22.0745 -2.6531 -0.0000 0.0000 -9.5864 6.0896 -11.9899 -1.2696 -7.1250 0.0000 -0.0000 -14.6526 18.1380 9.6852 0.0000 -0.0000 0.0000 87.3968 -9.6994 11.3396 -11.5248 19.0882 -1.9441 0.0000 0.0000 3.1930 3.2464 -31.2810 -1.6870 7.1250 -0.0000 -0.0000 37.8752 -56.9720 -12.3086
10.0305 21.5706 -18.3134 0.0930 1.2483 5.9892 0.0000 0.0000 0.0000 -15.8068 -2.2758 4.4842 0.0006 0.1525 0.4191 0.1599 -4.8156 -7.3791 0.0855 1.8864 5.1917 0.0000 0.0000 0.0000 19.2101 7.1904 9.3529 -0.0261 1.0428 -2.8665 -0.8382 -7.6396 -21.6941 -1.1220 -6.7284 18.9132 -1.3189 -1.5439 -11.1126 -0.3889 -1.8689 -1.3348 0.0545 -0.9433 4.8632 -8.5055 -12.3638 4.7090 7.8242 -17.1423 4.4119 3.7487 -8.6727 2.1832 -0.0000 -0.0000 0.0000 -84.5934 5.0051 27.4507 13.5721 -22.1197 -2.6649 -0.0000 0.0000 -9.4082 6.5256 -12.7389 -1.4449 -7.1250 0.0000 -0.0000 -14.3075 17.3913 9.6852 -0.0000 -0.0000 0.0000 87.8014 -9.7692 11.2999 -11.3583 18.8354 -1.8900 0.0000 0.0000 5.2528 3.7357 -29.0964 -1.8186 7.1250 -0.0000 -0.0000 36.4364 -55.1129 -10.0248
10.0334 21.5640 -18.3125 0.0770 1.2310 6.0213 0.0000 0.0000 0.0000 -15.8068 -2.3359 4.5187 0.0004 0.1250 0.3435 0.1630 -4.7442 -7.4240 0.0856 1.8866 5.1923 0.0000 0.0000 0.0000 19.2244 7.1682 9.2969 -0.0264 1.0490 -2.8837 -0.8341 -7.6126 -21.6358 -1.1106 -6.6953 18.8158 -1.5030 -1.5512 -11.1830 -0.2495 -1.8618 -1.2975 0.3020 -0.9448 4.9519 -8.5128 -12.3247 5.3371 7.9422 -17.0775 3.3512 3.8784 -8.6531 1.7243 0.0000 -0.0000 0.0000 -84.7854 4.8281 27.4910 13.6463 -22.2268 -2.6929 -0.0000 0.0000 -9.3732 6.6943 -12.8733 -1.4979 -7.1250 0.0000 -0.0000 -14.1850 17.2528 9.6413 0.0000 -0.0000 0.0000 87.5964 -9.8333 11.4200 -11.2918 18.7341 -1.8686 0.0000 0.0000 7.0063 4.7087 -27.1150 -2.1500 7.1250 -0.0000 -0.0000 35.7700 -53.3111 -8.1324
10.0362 21.5580 -18.3116 0.0586 1.2175 6.0569 0.0000 0.0000 0.0000 -15.8035 -2.4051 4.5631 0.0002 0.0870 0.2390 0.1668 -4.6415 -7.4764 0.0831 1.8591 5.1163 0.0000 0.0000 0.0000 19.2441 7.1731 9.2423 -0.0265 1.0499 -2.8862 -0.8306 -7.6050 -21.5978 -1.1121 -6.6998 18.8289 -1.5102 -1.5486 -11.2236 -0.2346 -1.8574 -1.2904 0.3210 -0.9431 4.9827 -8.5367 -12.2745 5.8551 8.1840 -17.0123 2.5677 4.0361 -8.6317 1.3949 0.0000 0.0000 0.0000 -84.7962 4.7172 27.4772 13.7092 -22.3174 -2.7167 -0.0000 0.0000 -9.3317 6.8975 -13.1593 -1.5775 -7.1250 0.0000 -0.0000 -14.0309 16.9644 9.6214 0.0000 0.0000 0.0000 87.6103 -9.9796 11.8725 -11.2307 18.6410 -1.8490 0.0000 0.0000 8.2894 3.9084 -25.7349 -1.6992 7.1250 -0.0000 -0.0000 34.0510 -52.3076 -6.7675
10.0389 21.5526 -18.3106 0.0466 1.2103 6.0917 0.0000 0.0000 0.0000 -15.8061 -2.4729 4.6168 0.0000 0.0424 0.1166 0.1704 -4.5321 -7.5238 0.0794 1.8176 5.0017 0.0000 0.0000 0.0000 19.2653 7.2255 9.2118 -0.0264 1.0485 -2.8822 -0.8300 -7.6289 -21.6104 -1.1250 -6.7372 18.9390 -1.4938 -1.5514 -11.2681 -0.2389 -1.8619 -1.2890 0.3053 -0.9450 5.0083 -8.6194 -12.2192 6.2639 8.4555 -16.9487 2.0132 4.1980 -8.6106 1.1701 0.0000 0.0000 0.0000 -84.8006 4.6232 27.3938 13.7695 -22.4043 -2.7397 -0.0000 0.0000 -9.2972 7.0874 -13.4090 -1.6516 -7.1250 0.0000 -0.0000 -13.8889 16.7116 9.5971 0.0000 0.0000 0.0000 87.6619 -10.1652 12.6606 -11.1854 18.5718 -1.8345 0.0000 0.0000 9.1106 1.7722 -25.0731 -0.7512 7.1250 -0.0000 -0.0000 31.6689 -52.1127 -6.0451
10.0418 21.5478 -18.3091 0.0466 1.2098 6.1232 0.0000 0.0000 0.0000 -15.8250 -2.5382 4.6789 0.0000 -0.0041 -0.0111 0.1737 -4.4316 -7.5691 0.0756 1.7735 4.8801 0.0000 0.0000 0.0000 19.2777 7.3127 9.2092 -0.0263 1.0471 -2.8783 -0.8326 -7.6707 -21.6676 -1.1495 -6.8077 19.1468 -1.4931 -1.5594 -11.3140 -0.2388 -1.8718 -1.2919 0.3023 -0.9499 5.0309 -8.7229 -12.1677 6.5450 8.6695 -16.8929 1.6808 4.3258 -8.5910 1.0376 -0.0000 -0.0000 0.0000 -84.8351 4.5380 27.2571 13.8295 -22.4905 -2.7626 -0.0000 0.0000 -9.2719 7.2544 -13.5737 -1.7112 -7.1250 0.0000 -0.0000 -13.7676 16.5424 9.5604 -0.0000 -0.0000 0.0000 87.7006 -10.3479 13.5225 -11.1725 18.5521 -1.8304 0.0000 0.0000 9.5222 -0.6613 -25.0244 0.2797 7.1250 -0.0000 -0.0000 29.4083 -52.4856 -5.8277
10.0451 21.5436 -18.3069 0.0598 1.2129 6.1506 0.0000 0.0000 0.0000 -15.8636 -2.5974 4.7433 0.0001 -0.0473 -0.1298 0.1766 -4.3503 -7.6116 0.0709 1.7177 4.7261 0.0000 0.0000 0.0000 19.2750 7.4133 9.2286 -0.0263 1.0470 -2.8781 -0.8371 -7.7152 -21.7431 -1.1850 -6.9084 19.4442 -1.5077 -1.5703 -11.3628 -0.2371 -1.8836 -1.2957 0.3092 -0.9560 5.0548 -8.7913 -12.1256 6.7038 8.7670 -16.8457 1.5274 4.3914 -8.5721 0.9709 0.0000 0.0000 0.0000 -84.8890 4.4495 27.0786 13.8791 -22.5615 -2.7815 -0.0000 0.0000 -9.2435 7.3959 -13.6586 -1.7557 -7.1250 0.0000 -0.0000 -13.6677 16.4522 9.5145 0.0000 0.0000 0.0000 87.7232 -10.4788 14.1628 -11.1853 18.5717 -1.8345 0.0000 0.0000 9.7654 -2.4359 -25.2356 1.0390 7.1250 -0.0000 -0.0000 27.8959 -52.9779 -5.8379
